# xmcd CD database file
#
# Track frame offsets:
#	150
#	15115
#	26507
#	44127
#	61272
#	73307
#	87025
#	96800
#	109652
#	135177
#
# Disc length: 2001 seconds
#
# Revision: 0
# Processed by: cddbd v1.4PL0 Copyright (c) Steve Scherf et al.
# Submitted via: Feurio! 1.63 - http://www.feurio.com
#
DISCID=7707cf0a
DTITLE=Red Steagall - Dear Mama, I'm a Cowboy
DYEAR=1900
DGENRE=
TTITLE0=Dear Mama, I'm a Cowboy
TTITLE1=I'm Sleepin' in my Leggin's Tonight
TTITLE2=The Old Man and His Fiddle
TTITLE3=The Blue Roan and The Kid
TTITLE4=Forty and Found
TTITLE5=Boley
TTITLE6=The Lantern on the Wagon
TTITLE7=The Last Guard
TTITLE8=Failure
TTITLE9=Big Texas Moon
EXTD=
EXTT0=
EXTT1=
EXTT2=
EXTT3=
EXTT4=
EXTT5=
EXTT6=
EXTT7=
EXTT8=
EXTT9=
PLAYORDER=
